<svg width="52" height="65" viewBox="0 0 52 65" fill="none" xmlns="http://www.w3.org/2000/svg">
	<path d="M37.882 13.6983C30.9015 22.971 19.7472 25.1487 11.2555 31.19C11.0396 30.909 10.8237 30.5578 10.6078 30.2768C13.0546 28.5908 15.4294 26.6239 18.0201 25.1487C20.8266 23.533 23.8491 22.3388 26.7996 21.0743C34.3558 17.8429 37.954 12.2934 37.0904 4.14462C36.9465 2.73966 37.0904 1.40496 37.0904 0C42.4877 0.63223 46.8774 4.49586 48.3887 10.1859C50.7635 18.8264 46.5896 24.5867 38.8175 28.9421C40.1129 29.5743 41.0484 30.066 41.9839 30.4875C49.5401 33.7892 52.5625 38.9875 51.9149 47.7685C51.4111 55.2147 47.0933 60.2726 39.6091 62.38C31.8371 64.5577 15.4294 65.6817 6.36199 64.5577C6.86573 55.0743 7.36948 45.5908 17.3724 39.0578C15.2855 39.2685 13.9901 39.409 12.6948 39.5495C12.6228 39.3388 12.5508 39.128 12.4789 38.9173C17.1565 37.0206 21.9781 35.3346 26.5837 33.2974C34.9315 29.7148 38.9614 22.9008 37.882 13.6983ZM22.5538 55.4957C32.7006 55.2147 38.7456 51.1404 38.2418 45.3098C37.6661 39.409 30.3258 35.2644 22.5538 36.5991C22.5538 42.7809 22.5538 49.0329 22.5538 55.4957Z" fill="white" />
	<path d="M3.98719 58.0246C-5.36807 37.442 1.82828 17.9131 24.6407 10.7479C22.6257 11.8016 20.6107 12.9958 18.5238 13.9793C7.87321 18.9669 2.83577 27.3263 3.12363 38.7767C3.26755 45.2395 3.69933 51.6321 3.98719 58.0246Z" fill="white" />
</svg>
	